Coordinates
version=1
nRows=22
nColumns=24
inDegrees=yes

Units are S.I. units (second, meters, Newtons, ...)
Angles are in degrees.

endheader
time	pelvis_tilt	pelvis_list	pelvis_rotation	pelvis_tx	pelvis_ty	pelvis_tz	hip_flexion_r	hip_adduction_r	hip_rotation_r	knee_angle_r	ankle_angle_r	subtalar_angle_r	mtp_angle_r	hip_flexion_l	hip_adduction_l	hip_rotation_l	knee_angle_l	ankle_angle_l	subtalar_angle_l	mtp_angle_l	lumbar_extension	lumbar_bending	lumbar_rotation
      3.02500000	     -9.26232311	      3.34169526	     -7.20781970	     -1.22839818	     -0.04620084	      0.64069796	     -7.47034711	     -5.15785960	      5.24039796	    -15.55268726	     10.68904994	      6.44556928	     15.24469839	     38.84338787	     -1.53768029	     -7.20821157	    -20.61578947	      0.98056268	      5.19498669	      9.87920966	      6.00712164	      0.38912243	      6.66085733
      3.03000000	     -9.30891807	      3.56581664	     -7.43029871	     -1.22019477	     -0.04727103	      0.64090638	     -7.31499732	     -5.49627929	      5.24755124	    -16.46215757	     10.05985867	      6.76328792	     16.49747296	     38.81053836	     -1.36710424	     -7.22591895	    -21.02616630	     -0.09169620	      4.52651092	     11.71439846	      6.17851998	      0.00890792	      6.84205581
      3.03500000	     -9.46135016	      3.87575289	     -7.60317897	     -1.21189011	     -0.04847728	      0.64099675	     -6.94540329	     -5.93181936	      5.06905486	    -17.58214846	      9.63643680	      7.48266466	     17.11834248	     38.97469678	     -1.10092590	     -7.27012756	    -21.68602693	     -0.86592112	      4.01065303	     12.35060565	      6.49833764	     -0.44935053	      6.94635718
      3.04000000	     -9.59492618	      4.20653923	     -7.71525061	     -1.20364090	     -0.04958548	      0.64100518	     -6.53502401	     -6.38901077	      4.82461356	    -18.77244037	      8.98409738	      8.07998021	     18.24584976	     39.16333552	     -0.75919726	     -7.15875809	    -22.41824625	     -1.93873296	      3.33522654	     13.44356443	      6.79136015	     -0.94240943	      7.00863037
      3.04500000	     -9.64762657	      4.46569926	     -7.85175522	     -1.19561822	     -0.05049808	      0.64112640	     -6.14314064	     -6.75394297	      4.76052102	    -20.01826454	      8.02787022	      8.36288276	     19.90263879	     39.31485073	     -0.48095894	     -6.89137864	    -23.23977795	     -3.17258892	      2.58841581	     15.00699859	      6.95407986	     -1.38330913	      7.11145787
      3.05000000	     -9.82158593	      4.83521534	     -7.89260086	     -1.18751314	     -0.05153950	      0.64109603	     -5.52142052	     -7.23141622	      4.53858870	    -21.48296679	      7.24165755	      8.98048515	     20.69514253	     39.69303363	     -0.04418644	     -6.56557230	    -24.26338088	     -3.97322524	      1.95669326	     15.22291489	      7.28142315	     -1.93560616	      7.08758098
      3.05500000	     -9.92088114	      5.20243034	     -7.87760297	     -1.17947074	     -0.05241649	      0.64102467	     -4.93752324	     -7.70529073	      4.30866986	    -22.95045851	      6.04707186	      9.27415520	     22.51819176	     40.02992554	      0.46825587	     -6.07517322	    -25.33551777	     -4.64247911	      1.19764147	     15.20156339	      7.51483914	     -2.51300351	      6.98477824
      3.06000000	    -10.04110020	      5.60595926	     -7.83251577	     -1.17141768	     -0.05328057	      0.64089946	     -4.25120311	     -8.21933529	      4.07658931	    -24.53543450	      4.74219394	      9.61443121	     24.24673059	     40.41241731	      1.06705971	     -5.43771496	    -26.46565777	     -4.82917511	      0.49377670	     14.22345598	      7.77658914	     -3.12502096	      6.91134540
      3.06500000	    -10.22114909	      6.05951097	     -7.76322275	     -1.16337635	     -0.05425598	      0.64069414	     -3.39805707	     -8.79977452	      3.80804834	    -26.29702840	      3.51190392	     10.24080912	     25.45929532	     40.86903516	      1.73866909	     -4.79528297	    -27.57374912	     -4.83199978	     -0.34263894	     13.04933548	      8.11503212	     -3.77658172	      6.82360973
      3.07000000	    -10.20503183	      6.49829288	     -7.64831440	     -1.15526633	     -0.05486772	      0.64047050	     -2.77866299	     -9.36077959	      3.60764634	    -27.90518998	      1.58882092	     10.19394925	     28.11816692	     41.09398652	      2.49664904	     -4.15700631	    -28.71266907	     -4.00643093	     -1.15302770	      9.51676043	      8.23565516	     -4.45612737	      6.64054763
      3.07500000	    -10.19749650	      6.91367051	     -7.54739893	     -1.14731455	     -0.05553330	      0.64012020	     -2.05201669	     -9.91494948	      3.46757559	    -29.66086067	     -0.25655937	     10.50243076	     30.13251067	     41.29350113	      3.25517143	     -3.50450671	    -29.75438186	     -3.13427197	     -2.22865027	      5.82389084	      8.33949183	     -5.08239613	      6.50218874
      3.08000000	    -10.20516029	      7.44049426	     -7.37592733	     -1.13915831	     -0.05618843	      0.63986666	     -1.29141001	    -10.56965041	      3.27215425	    -31.41308345	     -2.32787210	     10.55652761	     32.22888817	     41.42620765	      4.13233355	     -2.99018586	    -30.62142632	     -2.24505210	     -3.33491763	      2.08296636	      8.50223176	     -5.85693338	      6.29909584
      3.08500000	    -10.14692771	      7.83291304	     -7.24454678	     -1.13128408	     -0.05670624	      0.63946664	     -0.55384838	    -11.09009880	      3.23552656	    -33.15381380	     -4.58613461	     10.75740352	     34.46282071	     41.43044310	      4.89496175	     -2.48525233	    -31.38590659	     -1.41657071	     -4.62256175	     -1.67764672	      8.52533600	     -6.45803508	      6.13472566
      3.09000000	    -10.12179362	      8.34171885	     -7.02628404	     -1.12321698	     -0.05722505	      0.63921339	      0.22737241	    -11.71038336	      3.08542716	    -34.88515595	     -7.03340793	     10.63188793	     36.61159724	     41.37925873	      5.75686159	     -2.13320777	    -31.98158759	     -0.67988095	     -5.69056643	     -4.90375727	      8.62997475	     -7.22290841	      5.89011504
      3.09500000	    -10.05027146	      8.69052621	     -6.84503634	     -1.11545467	     -0.05756941	      0.63885613	      0.98496708	    -12.14565423	      3.10788232	    -36.56246591	     -9.65350555	     10.59606983	     38.84696701	     41.21827624	      6.46097841	     -1.78063776	    -32.49707854	     -0.10573174	     -6.74836203	     -7.56732477	      8.61271290	     -7.78880706	      5.66308797
      3.10000000	    -10.02668620	      9.11282143	     -6.57754535	     -1.10763191	     -0.05792451	      0.63855088	      1.80179053	    -12.64980035	      3.00533820	    -38.22976847	    -12.35067064	     10.41544111	     40.93740530	     41.04304399	      7.22112984	     -1.54829370	    -32.90812069	      0.37711724	     -7.46139565	     -9.40587737	      8.65753515	     -8.45684149	      5.34065780
      3.10500000	     -9.96717830	      9.43521169	     -6.33715526	     -1.10002040	     -0.05809394	      0.63821159	      2.60273150	    -13.03638734	      2.95718292	    -39.83797709	    -15.18618936	     10.13439127	     43.10953575	     40.77858129	      7.86503412	     -1.34997140	    -33.27011934	      0.83345469	     -7.99807787	    -10.83509238	      8.61907566	     -9.00094501	      5.05889090
      3.11000000	    -10.00043470	      9.76218271	     -6.04305900	     -1.09248967	     -0.05825191	      0.63772972	      3.52191313	    -13.41569803	      2.91262360	    -41.44471463	    -17.96157190	      9.94113131	     44.96834671	     40.55245395	      8.53230802	     -1.10446394	    -33.53100598	      1.09086106	     -8.52372561	    -11.70688206	      8.66454752	     -9.52726400	      4.73432200
      3.11500000	     -9.93702330	     10.06974038	     -5.78800969	     -1.08503845	     -0.05817986	      0.63746399	      4.35413154	    -13.76925439	      2.82105795	    -42.97454824	    -20.86806782	      9.31950946	     47.19017507	     40.18919420	      9.10687502	     -1.02869987	    -33.77944420	      1.66208529	     -8.58633265	    -12.66152336	      8.59894214	    -10.05987514	      4.41781059
      3.12000000	     -9.96519972	     10.36835301	     -5.52543282	     -1.07771467	     -0.05806690	      0.63705295	      5.32975001	    -14.10046914	      2.76848276	    -44.53818465	    -23.61489713	      8.69932265	     48.87382509	     39.87440927	      9.68512434	     -0.87903507	    -33.93322796	      2.10750415	     -8.83170830	    -13.60294667	      8.61840187	    -10.54122531	      4.13170625
      3.12500000	     -9.96850920	     10.72144438	     -5.25233382	     -1.07038530	     -0.05786179	      0.63673206	      6.29378863	    -14.49865394	      2.66120236	    -46.08647326	    -26.19700406	      7.87112303	     50.62024138	     39.50383029	     10.28047296	     -0.82881694	    -34.05026186	      2.82398987	     -8.79767380	    -14.80487815	      8.62365077	    -11.09906888	      3.77022793
      3.13000000	    -10.00581249	     11.07148696	     -4.98773459	     -1.06316831	     -0.05760754	      0.63630418	      7.34505024	    -14.90822035	      2.53694242	    -47.67861933	    -28.56760820	      6.90922258	     51.98318294	     39.15231229	     10.86641726	     -0.79757376	    -34.13005498	      3.62787274	     -8.81716916	    -16.31281250	      8.65064728	    -11.62046844	      3.46406031
